<svg xmlns="http://www.w3.org/2000/svg" width="297.838" height="63.448" viewBox="-78.324 1 297.838 63.448"><path fill="#FFF" d="M132.315 5.967c0 2.208 1.839 3.863 4.047 3.863 2.207 0 4.23-1.655 4.23-3.863s-1.84-3.863-4.23-3.863c-2.208 0-4.047 1.655-4.047 3.863M-43.37 26.019c.184 6.99-6.071 10.854-17.477 10.854-9.75.184-16.74-1.84-16.74-1.84l-.553-10.302h2.944l2.391 6.255c2.208 1.103 5.703 2.575 11.222 2.575 4.415 0 8.462-.736 8.462-3.862 0-2.76-2.207-4.784-6.438-6.071l-9.014-2.945c-4.784-1.471-8.647-4.046-8.647-9.382C-77.22 5.967-72.253 1-59.928 1c8.279 0 13.246 1.656 13.246 1.656l.552 9.566h-2.575l-2.392-5.887c-1.288-.735-4.598-2.207-8.646-2.207-4.048 0-7.726 1.104-7.726 3.863 0 2.207 2.206 3.862 5.151 4.783l10.669 3.68c5.887 2.022 8.279 5.334 8.279 9.565m30.721 10.118H-24.79v-2.394c-1.84 1.473-4.23 3.129-8.831 3.129-4.047 0-6.071-1.84-6.071-6.255v-13.98l-4.414-.92v-2.208l12.141-.919-.183 16.74c0 2.024 1.656 2.759 3.311 2.759 2.207 0 3.679-1.472 4.6-2.39l.184-12.878-4.6-1.104v-2.208l12.142-.919-.184 20.419 3.863.92.183 2.208zm34.401 0H9.611V20.132c0-2.392-1.288-3.312-3.128-3.312-1.472 0-3.679 1.655-4.783 2.759v13.245l4.599.919.184 2.394H-10.44v-2.394l4.598-.919V16.637l-4.967-1.104v-2.207l12.326-1.104v3.863l.736-.552c2.575-2.023 5.15-3.863 8.646-3.863 4.599 0 6.254 1.839 6.254 6.807v14.165l4.783.92v2.576l-.184-.001zm32.562-10.118c.185 6.806-5.519 10.854-15.821 10.854-8.646 0-15.084-2.024-15.084-2.024l-.552-10.117h2.575l2.024 6.255c2.023 1.103 5.151 2.575 10.117 2.575 4.048 0 7.726-.736 7.542-3.862 0-2.76-1.839-4.784-5.887-6.071l-8.094-2.945c-3.863-1.471-7.543-4.046-7.543-9.382C23.592 5.967 28.007 1 39.045 1c7.542 0 11.957 1.656 11.957 1.656l.552 9.382h-2.392l-2.208-5.887c-1.104-.736-4.047-2.208-7.727-2.208-3.679 0-6.99 1.104-6.99 3.863 0 2.208 2.024 3.68 4.598 4.783l9.566 3.679c5.521 2.208 7.728 5.336 7.913 9.751m24.651-2.391H62.776c0 5.885 3.126 8.645 7.91 8.645 2.577 0 4.967-.919 6.806-2.943l1.656 1.472c-2.024 2.759-5.886 6.071-11.773 5.886-6.438-.185-12.325-5.15-12.325-12.325 0-7.726 4.967-12.693 12.509-12.51 8.463.185 11.406 5.335 11.406 11.775m-7.359-2.392c0-4.967-2.023-7.542-4.231-7.542-2.207 0-4.599 2.392-4.599 7.542h8.83z"/><path fill="#FFF" d="M110.975 36.137H98.833V20.132c0-2.392-1.288-3.312-3.127-3.312-1.472 0-3.679 1.655-4.784 2.759v13.245l4.6.919.184 2.394H78.781v-2.394l4.599-.919V16.637l-4.968-1.104v-2.207l12.326-1.104v3.863l.736-.552c2.576-2.023 5.151-3.863 8.646-3.863 4.6 0 6.255 1.839 6.255 6.807v14.165l4.783.92v2.576l-.183-.001zm18.028-3.128c-2.206 1.839-4.783 3.679-10.118 3.679-4.967 0-6.255-2.392-6.255-7.358V16.085h-4.599v-2.024c3.496-1.471 7.175-4.966 10.117-10.302h1.841v9.382h7.358v2.943h-7.358v13.981c0 2.207 1.839 2.758 3.679 2.758 1.472 0 3.129-.551 4.416-1.47l.919 1.656zm17.293 3.128h-16.925v-2.208l4.783-1.104V16.821l-4.599-1.104v-2.208l12.142-.919v20.419l4.599.92v2.208zm34.584 0h-12.142V20.132c0-2.392-1.287-3.312-3.127-3.312-1.471 0-3.68 1.655-4.782 2.759v13.245l4.599.919.184 2.394h-16.924v-2.394l4.599-.919V16.637l-4.967-1.104v-2.207l12.326-1.104v3.863l.736-.552c2.575-2.023 5.151-3.863 8.646-3.863 4.6 0 6.255 1.839 6.255 6.807v14.165l4.782.92v2.576l-.185-.001z"/><path fill="#FFF" d="M202.589 22.891H186.4c0 5.887 3.127 8.647 7.908 8.647 2.575 0 4.969-.921 6.808-2.944l1.655 1.472c-2.023 2.758-5.888 6.071-11.773 5.887-6.438-.186-12.324-5.151-12.324-12.325 0-7.728 4.967-12.694 12.51-12.511 8.462.185 11.405 5.336 11.405 11.774M195.23 20.5c0-4.967-2.024-7.542-4.232-7.542-2.391 0-4.598 2.391-4.598 7.542h8.83z"/><path fill="#FFF" d="M219.329 36.137h-16.927v-2.392l4.785-1.104V5.047l-4.599-.92V2.104L214.546 1v31.641l4.783 1.104v2.392zM-15.408 47.726s0 .186 0 0zm133.374 7.727c-32.378-3.679-66.228-7.727-102.651-9.197-17.477-.735-35.69-.92-53.166 0-14.901.734-28.514 1.838-40.473 3.679v2.209c20.421-2.209 62.916-5.336 99.708-3.128 41.76 2.574 63.651 8.095 96.397 11.958 21.708 2.573 46.91 4.229 71.93 3.128a285.67 285.67 0 0 0 29.803-2.577V53.43c-9.015 1.655-18.949 2.944-29.803 3.864-24.1 1.655-49.485.735-71.745-1.841z"/><path fill="#FFF" d="M158.255 50.855c-39.001 1.287-72.483-1.104-104.677-4.049-14.532-1.287-29.986-2.391-45.806-2.941-28.515-1.656-58.316-1.842-85.912-.186v2.943c16.925-1.656 35.138-2.576 53.718-2.758 27.043-.188 53.534 1.469 78 3.86 11.038 1.104 46.543 3.681 46.543 3.681 19.133 1.286 38.817 2.021 58.686 1.473 23.914-.553 44.701-3.312 60.891-6.991v-4.416c-15.822 4.599-36.057 8.648-61.443 9.384z"/></svg>