<svg id="Isolation_Mode" xmlns="http://www.w3.org/2000/svg" viewBox="0 0 80 80"><style>.st0{fill:#fff}</style><path class="st0" d="M40.6 79.2C20.8 80-1.5 61.4 1.2 36.1 3.2 17.3 18.9.6 40.4.7 62.9.8 79.9 19.9 79 42.8c-.7 19.7-19.1 37.1-38.4 36.4zM43 40c-1.3 1.6-2.2 3-3.3 4.2-3.4 3.4-6.8 6.9-10.5 10-3.8 3.2-2.2 5.5.4 8.2 2.6 2.7 5.1 5.9 9.1 2.1 7-6.8 13.8-13.9 20.8-20.8 2.5-2.5 2.3-4.8-.2-7.3-6.9-6.8-13.8-13.5-20.4-20.5-4.3-4.5-6.6-.5-9.4 1.8-3.1 2.5-3.2 5.1-.3 8 3.7 3.6 7.3 7.2 10.9 10.9 1 .9 1.8 2.1 2.9 3.4z"/></svg>