<svg xmlns="http://www.w3.org/2000/svg" width="232" height="65.667" viewBox="0 0 232 65.667"><g fill="#FFF"><path d="M64.837 21.426l4.852-3.639 5.451 2.938s-.944.636-.944 1.702v14.952s.726.822 1.002 1.101c.276.276.656.576 1.086.709.431.134.584.052.8-.011.215-.061.451-.287.533-.369s.154-.176.154-.176l.579.574-5.774 5.209-6.051-4.617s.562-.529.562-1.422V23.253c0-.431-.317-1.026-.773-1.39 0 0-.298-.212-.585-.295-.288-.083-.523-.145-.63-.145l-.262.003zm5.569-11.967l-3.744 3.183 4.226 2.814 3.7-3.245zM53.781 24.651v3.606c-.666.073-2.027.275-3.777.824-2.512.788-4.824 1.987-6.06 2.962-1.236.975-2.074 3.562-1.954 5.361.12 1.801 1.076 3.75 2.392 5.1 1.316 1.351 3.828 1.914 3.828 1.914l5.572-4.213v.028l5.424 4.173 5.715-5.226-.519-.526s-1.12 1.016-2.079.227a22.203 22.203 0 0 1-1.483-1.342V23.761s.001-.527.173-.828c.173-.302.359-.431.517-.46.158-.029.331-.029.331-.029l-8.124-4.836-10.907 7.397s.722.487 1.054.917c.332.429.644.8.897 1.404.253.605.39 1.327.39 1.327s1.073-.508 1.639-.84c.565-.331 1.19-.799 1.658-1.326.468-.526.76-.995.722-1.58-.04-.585-.429-1.19-.858-1.561-.429-.37-.643-.449-.643-.449l1.989-1.366 4.103 3.12zm-2.102 15.865s-1.595-1.087-2.473-2.55c-.877-1.463-1.157-3.111-.797-4.611.359-1.499 1.436-2.586 2.911-3.3a8.07 8.07 0 0 1 2.461-.71v9.442l-2.102 1.729zM80.146 11.09v26.933c0 .738-.664 1.902-.664 1.902l6.042 4.49 5.758-5.19-.514-.554s-.104.119-.223.224c-.119.106-.409.304-.659.315-.25.015-.368.092-.948-.131-.579-.224-.948-.658-1.225-.935-.276-.276-.617-.731-.617-.731V10.429c0-.699.124-1.398.496-1.825.373-.426.456-.542.456-.542L82.67 4.646l-5.261 4.361.256.319.587-.466s.296-.077.552-.002c.256.075.619.241.92.694.302.452.422.935.422 1.086v.452z"/><path d="M93.13 24.191v14.13c0 .666-.591 1.442-.591 1.442l7.214 4.402 5.26-5.182v2.939s2.456.879 3.547 1.783c1.091.906 2.024 1.971 2.396 3.144.373 1.171.053 2.289-.453 2.927-.505.641-1.543 1.359-3.248 1.094-1.704-.267-3.354-1.385-4.1-1.943-.746-.559-2.29-1.811-3.488-2.662s-3.061-2.104-5.963-1.57c0 0-1.65.318-2.742.957-1.092.641-2.209 1.705-2.582 2.529-.373.826-.453 1.357-.479 1.785-.027.426 0 1.117 0 1.117s.16-1.117.585-1.703c.426-.588 1.012-1.119 1.891-1.332.878-.213 1.997-.08 2.609.293.612.373 1.757 1.306 2.45 1.97.692.666 2.183 2.024 3.115 2.608.932.586 2.077 1.013 3.674 1.226 1.597.213 3.435-.106 4.366-.427.931-.318 2.263-1.17 3.354-2.021 1.091-.854 2.502-2.076 3.301-3.408.799-1.33 1.225-2.822 1.199-4.926-.027-2.104-1.252-3.887-1.784-4.525-.533-.639-.792-.811-.792-.811V23.141c0-.336.051-.714.499-1.135.448-.42.806-.63.806-.63s-.626-.168-1.165-.504c-.538-.337-3.09-1.975-3.672-2.521l-.763-.715-4.877 3.628s.584-.067 1.058.097c.474.164.894.437 1.076.947.182.511.146 1.385.146 1.677v13.57l-2.375 2.144-2.572-1.672V21.121l-4.376-3.403-4.133 3.544s.484-.025.728.102c.243.126.544.341.72.7.175.36.165.866.165 1.021l-.004 1.106zM37.204 40.369a17.277 17.277 0 0 0-3.215 3.239c-.652.86-1.657 2.614-1.657 2.614s-2.268-3.276-5.566-4.824c-3.299-1.547-7.146-1.675-10.032-1.354-2.886.322-5.703 2.256-7.009 3.353-1.305 1.097-2.542 3.095-2.542 3.095s.342-4.062 1.717-6.513c1.375-2.448 4.26-4.705 6.253-5.414a22.783 22.783 0 0 1 2.405-.702V13.099H9.587c-1.854 0-3.504-1.16-4.054-3.029-.55-1.87 0-3.933.893-4.642.894-.71 1.787-.839 3.024-.903 0 0-.756.451-.756 1.225 0 .773.962 1.096 1.924 1.096h22.4c1.58 0 7.214 1.031 7.214 7.026v24.639s-1.559.739-3.028 1.858zm-4.392-24.885c0-.773-.137-2.385-2.679-2.385H18.519v20.563c1.718-.322 3.698-.482 5.635-.191 3.436.516 6.116 1.869 6.941 2.32.823.451 1.717.967 1.717.967V15.484z"/><path d="M8.872 26.775v6.823c0 1.805-1.318 3.569-1.318 3.569s4.026-2.475 6.04-4.085c2.013-1.612 2.222-2.836 2.222-3.867V14.002s-1.883.594-3.471 1.512c-1.9 1.097-2.848 2.872-3.126 4.161-.089.413-.156 1.266-.207 2.232 0 0-1.077.447-1.646.839-.57.392-1.01.854-1.413 1.52a3.944 3.944 0 0 0-.558 1.899c-.024.559.023 1.128.023 1.128s.107-.76.404-1.176c.296-.416.57-.629.997-.76a1.7 1.7 0 0 1 1.01-.012c.213.071.641.273.855.665.213.393.186.709.188.765z"/></g><g fill="#FFF"><path d="M209.57 26.784l9.74-7.378s.578 1.414 1.617 2.182c1.037.769 1.437 1.106 2.654 1.261 1.225.154 2.109 0 2.719-.399.611-.399.611-.584.611-.584s-.244.984-.885 1.875c-.642.893-3.146 3.751-3.939 4.704-.793.953-2.807 3.32-2.807 3.32h6.471c.795 0 2.504 1.169 2.504 2.398v4.642l-9.494 7.163s-1.068-1.66-3.209-2.735c-2.135-1.077-3.051-.894-4.426-.614-1.375.275-1.953.646-2.318.891l-.367.246s.275-.983 1.009-2.028c.731-1.045 5.95-7.163 5.95-7.163h-3.174c-.855 0-2.596-1.23-2.596-2.368s-.06-5.413-.06-5.413zm6.569 4.984h1.783l3.91-4.631s-.748-.02-1.701-.143-1.58-.388-2.352-.959c-.769-.571-1.256-1.305-1.396-1.448s-.244-.204-.244-.204v7.385zm-2.75 6.924s.428-.131 1.115-.226c.686-.092 1.242-.148 2.303.039 1.06.187 1.912.599 2.937 1.365 1.021.768 1.506 1.403 1.506 1.403h.094v-6.715h-4.518l-3.437 4.134zm-23.467-11.908l9.742-7.378s.58 1.414 1.617 2.182c1.037.769 1.438 1.106 2.658 1.261 1.219.154 2.104 0 2.717-.399.609-.399.609-.584.609-.584s-.244.984-.886 1.875c-.644.893-3.144 3.751-3.938 4.704-.795.953-2.811 3.32-2.811 3.32h6.473c.793 0 2.502 1.169 2.502 2.398v4.642l-9.491 7.163s-1.068-1.66-3.21-2.735c-2.135-1.077-3.051-.894-4.426-.614-1.373.275-1.953.646-2.317.891l-.369.246s.274-.983 1.008-2.028 5.955-7.163 5.955-7.163h-3.176c-.854 0-2.597-1.23-2.597-2.368s-.06-5.413-.06-5.413zm6.573 4.984h1.78l3.912-4.631s-.752-.02-1.703-.143c-.95-.123-1.58-.388-2.35-.959-.771-.571-1.258-1.305-1.398-1.448a1.534 1.534 0 0 0-.241-.204v7.385zm-2.752 6.924s.428-.131 1.114-.226c.687-.092 1.246-.148 2.304.039 1.06.187 1.914.599 2.937 1.365 1.021.768 1.506 1.403 1.506 1.403h.092v-6.715h-4.516l-3.437 4.134z"/><path d="M180.891 19.906l7.896 6.968-10.562 7.848v2.689s1.64 1.687 2.371 2.248c.732.563 1.541 1.002 2.324 1.1.783.099 1.465.099 2.051-.342.588-.438 3.791-2.811 3.791-2.811l.586.758-10.146 7.604-7.847-5.965.121-.392c.123-.392.271-1.147.271-1.147v-9.803c0-.783-.758-1.076-.758-1.076l9.902-7.679zm-2.691 5.183v8.312l5.012-3.79-5.012-4.522z"/><path d="M172.434 23.291c-.436.02-1.223.177-2.188-.355-.966-.532-1.381-1.382-1.718-1.974-.336-.592-.85-1.658-.85-1.658l-5.809 4.934v-1.083l-4.705-3.43-5.703 5.146.518.557s.439-.597.959-.597c.519 0 1.076.358 1.437.957.356.598.396 1.755.396 2.632v11.287s-.196.957-.356 1.275l-.16.318 5.901 4.668 5.785-5.186-.438-.519s-.278.397-.838.479c-.562.08-.998 0-1.715-.599-.72-.599-1.078-1.157-1.078-1.157V25.53l2.237-1.766s.888 2.073 1.343 2.646c.452.572 1.063 1.045 1.694 1.105.633.06 1.164.158 2.25-.296 1.086-.454 1.914-1.263 2.726-2.271.81-1.006 1.047-1.776 1.047-1.776s-.299.099-.735.119zm-22.756-11.736c-.6-1.476-1.627-2.588-2.822-3.55-1.198-.962-3.278-1.951-3.278-1.951L134 11.733V6.16h-.904v44.066l-1.539 1.447V8.649l-4.344-2.67-5.835 4.796s1.673.182 1.673 1.358v23.998c-.389.216-.988.576-1.494 1.007-.828.704-1.924 1.884-2.588 3.188-.662 1.305-.89 2.092-1.035 2.963-.146.869-.229 2.69-.229 2.69s1.036-1.513 1.865-2.258c.828-.745 1.429-1.181 2.402-1.614.473-.212.832-.345 1.078-.425v19.267L134 50.318v-9.322c.1.014.258.035.473.067.43.065 2.269.728 3.271 1.326a19.178 19.178 0 0 1 3.082 2.286c1.002.921 1.666 2.183 1.666 2.183s.256-.618.832-1.454c.578-.834 2.225-2.693 3.531-3.828 1.303-1.134 3.635-2.395 3.635-2.395V15.744c.001-.661-.215-2.714-.812-4.189zm-6.748 25.756l-.4-.312c-.399-.313-1.393-.904-1.393-.904-1.295-.713-3.043-1.327-4.562-1.618a17.4 17.4 0 0 0-2.574-.284V12.987c.504-.276 2.631-1.431 2.965-1.588.375-.178.779-.2 1.312-.089.535.111 1.179.421 1.914 1.111.734.689 1.402 1.581 1.804 2.293s.937 1.825.937 2.761c-.003.935-.003 19.836-.003 19.836z"/></g></svg>