<svg xmlns="http://www.w3.org/2000/svg" width="814.089" height="101.455" viewBox="-49.089 4.992 814.089 101.455"><path fill="#FFF" d="M677.374 77.796c-3.236 2.729-9.774 8.528-12.806 11.461-2.832-2.528-8.72-7.147-12.361-9.776v-.446c1.052-.356 1.797-1.33 1.797-3.709v-28.09c-2.931-2.121-8.437-5.503-11.57-7.526l-2.474 2.36v34.604l4.944 3.707s-6.853 5.943-9.886 8.876c-2.729-2.629-6.81-5.695-10.449-8.429v-.335c1.052-.355 1.797-1.439 1.797-3.819V47.235c-2.934-2.121-8.323-5.503-11.459-7.526l-3.033 2.584v34.379l4.944 3.707s-6.66 5.553-9.888 8.764c-3.035-2.731-6.408-5.22-10.45-8.315v-.222c1.139-.465 1.797-1.871 1.797-3.485V43.304l-4.044-3.594-3.146 2.696-1.237-1.348c3.034-2.528 8.461-7.427 12.809-11.572l9.214 8.314v2.359l12.472-10.673c3.942 2.832 15.614 10.224 15.614 10.224l12.021-10.224c3.842 3.034 12.673 8.515 17.526 11.348v.449c-1.616.434-1.797 2.483-1.797 3.595v30.446l5.168 3.932 3.034-2.693 1.463 1.233zm-86.735-59.32c-3.234 4.55-5.862 6.629-11.123 6.629-3.539 0-6.044-1.619-8.875-5.056l-2.922 2.809-1.234-1.573L579.18 9.937c3.538 7.179 7.798 8.19 11.234 8.089l.225.45zm3.258 59.32c-3.538 3.032-9.47 8.25-12.697 11.461-3.032-2.731-8.204-6.679-12.244-9.776v-.336c1.136-.463 1.797-1.867 1.797-3.484V43.304l-4.044-3.594-3.146 2.696-1.236-1.348c3.034-2.528 8.461-7.427 12.808-11.572l11.01 9.775v.449c-1.313.403-1.796 1.249-1.796 4.268v31.346l5.281 3.709 2.921-2.584 1.346 1.347zm-216.276 0c-3.538 3.032-9.466 8.25-12.696 11.461-3.033-2.731-8.202-6.679-12.245-9.776v-.336c1.135-.463 1.797-1.867 1.797-3.484V23.193l-4.044-3.596-3.146 2.697-1.236-1.349c3.033-2.527 7.785-7.314 12.132-11.46l11.684 9.775v.449c-1.313.403-1.797 1.249-1.797 4.27v51.344l5.28 3.709 3.033-2.584 1.238 1.348zm-121.114 0c-3.235 2.729-9.662 8.528-12.695 11.461-2.832-2.528-8.607-7.147-12.247-9.776v-.446c1.052-.356 1.798-1.33 1.798-3.709v-28.09c-2.933-2.121-8.326-5.503-11.46-7.526-.64.475-2.376 1.99-3.033 2.584v34.379l4.943 3.707s-6.77 5.553-9.999 8.764c-3.034-2.731-6.294-5.22-10.336-8.315v-.222c1.137-.465 1.797-1.871 1.797-3.485V43.304l-4.157-3.707-3.034 2.697-1.348-1.348c3.034-2.529 8.573-7.315 12.92-11.46l9.213 8.314v2.359l12.471-10.673c3.843 3.034 12.561 8.515 17.415 11.348v.449c-1.616.434-1.797 2.483-1.797 3.595v30.446l5.28 3.818 2.921-2.693 1.348 1.347zm505.13-3.146c-7.885 3.438-19.289 9.647-24.829 14.605-2.831-2.73-6.538-5.279-11.461-5.279-4.609 0-6.739 1.688-6.739 3.256 0 .978 1.909.845 1.909 2.248 0 .646-.485 1.348-1.348 1.348-1.079 0-2.471-1.537-2.471-3.482 0-3.641 1.881-6.796 7.639-12.809l10.113-10.559c-4.177-2.136-10.21-4.821-13.597-6.295v-.449c.984-.278 1.687-1.308 1.687-2.471v-8.651c0-.954-.474-2.404-1.687-2.808v-.448c8.494-3.034 19.336-9.135 25.506-13.482 1.381 1.537 4.98 4.831 8.876 4.831 3.279 0 4.043-1.663 4.043-2.809 0-.651-1.235-1.011-1.235-2.022 0-.865.474-1.236 1.122-1.236.968 0 1.799.971 1.799 2.809 0 5.46-5.17 12.697-13.372 12.697-5.394 0-8.704-2.753-11.233-6.292l-.225.113v13.593l7.415 3.594 3.372-3.483c3.499 2.217 10.85 6.099 14.716 7.752v.337c-.756.318-1.797 1.19-1.797 2.809v9.55c0 1.37 1.092 2.282 1.797 2.584v.449zm-15.279 6.293V64.652c-1.921-.91-4.843-2.174-6.741-3.147l-15.618 16.179.45.112c2.37-1.292 4.469-2.921 9.325-2.921 4.956 0 9.988 3.588 12.356 6.18l.228-.112zm-29.1-33.033l-24.043 14.943v10.225c3.034 1.313 9.797 4.617 13.034 6.74l5.168-5.28c1.433-1.46.956-3.819 3.484-3.819.706 0 1.233.428 1.233 1.234 0 .861-.594 1.271-1.009 1.686l-15.729 15.618c-5.359-3.438-16.214-8.448-21.57-10.675v-.448c.863-.323 1.908-.921 1.908-3.146V46.559c0-2.324-.926-3.069-1.908-3.257v-.448c8.089-2.63 20.425-9.226 26.289-13.371 4.045 6.069 9.302 13.575 13.143 18.427zm-12.694 5.731c-2.833-3.942-7.877-11.077-11.013-15.728l-.338.113V60.83l11.351-7.189z"/><path fill="#FFF" d="M564.573 12.746c0 8.143-5.989 12.268-12.358 13.482v50.893c8.191-4.548 9.887-9.547 9.887-11.908 0-.513-1.012-1.213-1.012-2.136 0-.718.828-1.347 1.461-1.347.924 0 1.348.843 1.348 2.36 0 11.829-11.325 27.749-35.389 27.749-18.057 0-33.371-14.175-33.371-32.47 0-26.087 21.91-35.155 37.079-36.064-5.562-1.214-14.513-3.146-21.911-3.146-8.595 0-15.615 5.112-15.615 9.662 0 1.718 1.349 2.044 1.349 3.258 0 .669-.317 1.461-1.238 1.461-1.415 0-1.907-1.48-1.907-2.584 0-9.91 6.409-24.043 21.346-24.043 15.14 0 26.636 5.505 38.424 5.505 7.794 0 10.189-2.752 9.887-7.303l1.236.562c.301.709.784 3.03.784 6.069zm-14.044 65.05V26.452c-.605.043-1.625.112-2.246.112-3.477 0-9.539-1.36-13.482-2.472-11.73 2.123-25.392 12.054-25.392 30.671 0 15.967 11.38 26.18 27.523 26.18 5.464 0 10.245-1.152 13.597-3.147zm-87.071-3.146c-7.889 3.438-19.292 9.647-24.83 14.605-2.834-2.73-6.541-5.279-11.461-5.279-4.612 0-6.74 1.688-6.74 3.256 0 .978 1.908.845 1.908 2.248 0 .646-.487 1.348-1.345 1.348-1.079 0-2.475-1.537-2.475-3.482 0-3.641 1.883-6.796 7.643-12.809l10.108-10.559c-4.176-2.136-10.206-4.821-13.593-6.295v-.449c.982-.278 1.686-1.307 1.686-2.471v-8.651c0-.954-.473-2.404-1.686-2.808v-.448c8.494-3.034 19.335-9.135 25.502-13.482 1.385 1.537 4.98 4.831 8.876 4.831 3.284 0 4.044-1.663 4.044-2.809 0-.651-1.233-1.011-1.233-2.022 0-.865.476-1.236 1.122-1.236.969 0 1.799.971 1.799 2.809 0 5.46-5.17 12.697-13.37 12.697-5.396 0-8.706-2.753-11.235-6.292l-.223.113v13.593l7.412 3.594 3.372-3.483c3.5 2.217 10.85 6.099 14.719 7.752v.337c-.759.318-1.799 1.19-1.799 2.809v9.55c0 1.37 1.091 2.282 1.799 2.584v.449zm-15.281 6.293V64.652c-1.92-.91-4.841-2.174-6.737-3.147l-15.62 16.179.449.112c2.373-1.292 4.472-2.921 9.326-2.921 4.953 0 9.987 3.588 12.358 6.18l.224-.112zM419.302 47.91l-23.93 14.943v10.225c3.035 1.313 9.798 4.617 13.035 6.74l5.169-5.28c1.428-1.46.954-3.819 3.48-3.819.708 0 1.124.428 1.124 1.234 0 .861-.597 1.271-1.013 1.686L401.55 89.257c-5.357-3.438-16.212-8.448-21.572-10.675v-.448c.866-.323 1.8-.921 1.8-3.146V46.559c0-2.324-.813-3.069-1.8-3.257v-.448c8.09-2.63 20.428-9.226 26.292-13.371 4.044 6.069 9.191 13.575 13.032 18.427zm-12.583 5.731c-2.829-3.942-7.875-11.077-11.011-15.728l-.336.113V60.83l11.347-7.189zm-55.837-5.731L326.95 62.854v10.225c3.034 1.313 9.797 4.617 13.033 6.74l5.168-5.28c1.43-1.46.842-3.819 3.37-3.819.707 0 1.236.428 1.236 1.234 0 .861-.596 1.271-1.012 1.686l-15.617 15.618c-5.359-3.438-16.213-8.448-21.572-10.675v-.448c.866-.323 1.798-.921 1.798-3.146v-28.43c0-2.324-.815-3.069-1.798-3.257v-.448c8.089-2.63 20.426-9.226 26.29-13.371 4.048 6.069 9.193 13.575 13.036 18.427zm-12.696 5.731c-2.831-3.942-7.876-11.077-11.01-15.728l-.225.113V60.83l11.235-7.189zm-30.335 31.123c-.324 12.84-6.658 21.684-18.651 21.684-9.383 0-16.305-4.83-24.83-4.83-4.963 0-7.697 1.527-9.099 3.257l-.562-.336c.505-9.306 7.088-14.495 15.503-14.495 9.276 0 16.024 5.954 25.841 5.954 6.27 0 9.506-3.293 10.112-6.627l-.112-.226c-1.314.807-2.978 1.797-5.505 1.797-5.058 0-10.55-3.494-11.46-9.662-2.415 1.684-7.848 5.896-10.224 7.978-5.926-3.827-15.464-8.604-20.11-10.675v-.448c.968-.315 1.573-1.518 1.573-2.698V46.449c0-1.721-.615-2.93-1.797-3.146v-.448c8.594-3.136 19.65-8.944 25.616-13.595 5.171 4.092 14.577 9.862 20.111 13.033v.562c-1.214.505-1.798 1.315-1.798 4.044v31.234c0 4.01.36 6.74 3.258 6.74.461 0 1.056-.393 1.46-.896l.674.787zm-18.988-5.284V47.687c-3.943-2.224-10.369-6.708-14.718-10.449l-.225.112v35.503c3.943 1.82 10.438 5.64 13.37 7.864l1.573-1.237zm-86.735-2.47L188.87 89.257c-3.841-2.731-7.167-4.944-12.021-7.978v-.562c1.101-.401 1.674-1.505 1.685-2.807.006-.573-.032-1.195-.224-1.8l-3.932-12.359h-27.301l-3.595 10.336c5.619 0 8.946.872 11.685 2.023l2.359-4.381 1.686.897-8.988 16.741c-3.68-2.094-7.768-3.708-12.471-3.708-5.548 0-9.748 1.442-11.797 3.371-.41.387-1.027.284-.786-.562 2.224-7.785 7.815-13.725 16.403-14.27l18.988-52.579c-2.124-6.169-4.461-7.415-9.213-7.415-4.452 0-8.763 2.067-8.763 7.528 0 2.527 2.472 2.313 2.472 4.156 0 .646-.599 1.349-1.46 1.349-1.619 0-2.696-2.158-2.696-6.404 0-9.606 7.291-15.28 15.279-15.28 7.28 0 10.134 2.809 12.359 5.843.707-2.832 3.572-4.146 5.729-4.495l.225.337c-1.349 1.672-2.135 3.157-2.135 5.281 0 1.103.816 3.604 1.124 4.494L193.93 76.11l3.708 2.359 3.146-2.922 1.344 1.463zm-30.334-21.011l-10.449-31.907-11.347 31.907h21.796zM102.922 74.65c-7.887 3.438-19.178 9.647-24.716 14.605-2.833-2.73-6.653-5.279-11.572-5.279-4.612 0-6.629 1.688-6.629 3.256 0 .978 1.91.845 1.91 2.248 0 .646-.599 1.348-1.46 1.348-1.079 0-2.472-1.537-2.472-3.482 0-3.641 1.993-6.796 7.752-12.809l10.112-10.559c-4.176-2.136-10.322-4.821-13.707-6.295v-.449c.982-.278 1.797-1.308 1.797-2.471v-8.651c0-.954-.585-2.404-1.797-2.808v-.448c8.493-3.034 19.335-9.135 25.502-13.482 1.383 1.537 4.981 4.831 8.876 4.831 3.281 0 4.044-1.663 4.044-2.809 0-.651-1.123-1.011-1.123-2.022 0-.865.362-1.236 1.012-1.236.968 0 1.91.971 1.91 2.809 0 5.46-5.282 12.697-13.482 12.697-5.396 0-8.707-2.753-11.234-6.292l-.225.113v13.593l7.526 3.594 3.371-3.483c3.5 2.217 10.74 6.099 14.605 7.752v.337c-.757.318-1.685 1.19-1.685 2.809v9.55c0 1.37.977 2.282 1.685 2.584v.449zm-15.28 6.293V64.652c-1.92-.91-4.728-2.174-6.628-3.147L65.285 77.684l.562.112c2.372-1.292 4.47-2.921 9.325-2.921 4.954 0 9.875 3.588 12.245 6.18l.225-.112zM56.521 74.65c-6.763 2.764-19.842 9.65-25.503 14.605-5.967-4.348-14.687-10.083-20.224-13.258v-.337c1.415-.506 1.797-1.537 1.797-3.258V46.9c0-2.345-.583-3.192-1.797-3.596v-.448c9.303-3.438 18.133-8.326 25.616-13.482 5.156 3.843 14.145 9.494 20.111 13.032v.45c-1.079.433-1.798 1.539-1.798 3.257v25.278c0 1.821.686 2.508 1.798 2.81v.449zm-15.392 6.405V47.687c-4.651-2.528-11.483-7.617-14.718-10.449l-.225.112v34.041c4.449 2.432 11.077 6.644 14.718 9.776l.225-.112zM10.12 71.953L.57 89.593c-5.194-3.62-13.484-5.843-20.559-5.843-13.954 0-23.583 2.484-28.538 5.619l-.562-.676c4.425-3.871 11.797-10.096 11.797-24.268 0-5.972-2.414-12.735-4.157-17.189-2.017-5.153-3.595-7.859-3.595-15.055 0-12.524 6.723-19.599 17.302-24.942l.899 1.011c-3.65 3.037-5.416 6.946-5.955 10.898l16.966-14.157c4.329 6.083 8.373 8.427 13.706 8.427 4.376 0 5.617-1.943 5.617-3.483 0-1.112-1.461-1.27-1.461-2.359 0-1.033.746-1.348 1.349-1.348 1.342 0 2.022 1.732 2.022 3.034 0 8.529-7.135 14.83-14.717 14.83-1.316 0-2.311.146-3.146 0v47.075c6.573 0 13.358 1.969 18.312 4.493l2.584-4.493 1.686.786zm-24.268-.786V23.868c-6.635-.726-10.019-5.576-12.246-8.202l-6.404 5.168c.035 7.195 2.143 13.476 4.606 19.213 2.252 5.243 4.719 12.034 4.719 16.738 0 7.748-4.281 12.642-14.494 22.248l.337.334c6.067-4.549 15.33-8.06 23.482-8.2z"/><path fill="#FFF" d="M546.146 30.945c0 .708-.837 1.236-1.347 1.236-.872 0-1.617-1.685-4.044-1.685-3.571 0-6.518 3.055-6.518 6.629 0 9.403 9.212 13.207 9.212 23.932 0 8.992-8.771 14.207-17.861 15.393l-1.687-1.238c4.981-.648 7.303-2.365 7.303-8.427 0-8.19-8.426-14.857-8.426-24.491 0-7.795 7.293-13.819 17.302-13.819 1.947 0 3.886.596 4.94 1.124.611.302 1.126.741 1.126 1.346z"/></svg>