<svg xmlns="http://www.w3.org/2000/svg" width="391" height="61.5" viewBox="-80.5 2.833 391 61.5"><path fill="#FFF" d="M2.448 10.113C.819 11.278-1.044 13.14-1.975 14.77c-1.164-1.397-3.26-3.259-4.657-4.191 1.397-1.398 3.726-3.726 4.657-4.889.931 1.163 3.026 3.259 4.423 4.423zM29.69 21.755c-.232 3.026-2.56 6.287-5.821 6.287-3.026 0-4.889-1.164-6.054-3.493l-.465.233v20.723c1.863.934 4.424 2.563 6.054 3.494l3.26-3.494.466.468-7.917 8.614c-3.493-2.563-8.383-5.355-11.177-6.754V47.6c1.397-.931 1.863-2.327 1.863-5.588V27.809c5.355-2.095 9.779-5.122 12.807-7.683.698.931 1.863 2.328 3.726 2.328 1.396 0 2.561-.233 3.026-.699h.232zM7.338 47.833L.586 54.585c-1.63-1.396-4.657-3.492-7.451-4.891v-.232c.931-.465 1.629-2.094 1.629-3.957v-18.86l-2.329-1.63-1.862 1.863-.465-.233 6.519-6.752c1.63 1.164 4.657 3.259 7.218 4.889-1.164.7-1.63 2.562-1.63 5.124v17.927l2.562 1.631 1.862-2.096.699.465zm-15.135 0l-6.52 6.752c-1.397-.93-3.958-2.793-5.821-3.726V28.275c-1.397-.699-3.26-2.095-4.191-2.793l-2.328 2.328V47.6l3.259 1.862v.232l-4.889 4.891c-1.863-1.629-4.891-3.492-7.451-4.891.931-.931 1.397-2.326 1.397-5.121V10.812c0-2.561-.466-3.26-.932-4.191l.466-.234c1.164.932 1.862 1.864 2.096 3.493 1.629-2.794 3.725-4.656 7.684-5.122v.233c-1.165 1.396-1.863 2.794-1.863 5.123v16.765l6.287-6.752c2.095 1.862 5.821 4.656 9.08 6.286v.233c-.93.931-1.396 2.795-1.396 5.821v15.602l2.328 1.628 1.863-2.096.931.232zm-40.049-33.528h.466v38.187h-.466V14.305z"/><path fill="#FFF" d="M-36.903 46.903c-3.259 3.958-9.545 10.244-19.325 10.244-13.272 0-22.819-9.079-22.819-24.216 0-13.97 11.642-21.886 19.093-24.68l.698.233C-66.241 13.141-70.2 18.961-70.2 28.741c0 8.848 3.027 14.902 7.917 18.627l1.629-1.164V24.316c0-3.958-.698-6.751-1.863-7.683v-.466c5.822-2.794 11.875-6.986 16.067-10.71 1.396 1.396 2.794 2.096 4.889 2.096 2.096 0 3.726-.699 4.656-1.396l.466.232c-.699 4.425-3.027 8.617-8.615 8.617-3.493 0-5.355-1.165-7.218-3.261h-.233v29.571c-2.794 1.63-7.218 4.658-9.314 6.286 3.26 2.329 7.917 2.563 12.573 2.563 4.424 0 8.382-1.863 12.108-4.19l.235.928zm145.296-20.491c-.932.466-1.63 1.863-1.63 4.89V46.67c-3.028 1.397-10.013 5.123-13.505 7.916-3.725-2.562-5.588-4.19-9.546-6.287v-.23c.931-.699 1.629-2.328 1.629-4.891V28.042c4.658-2.328 9.779-5.355 13.272-8.149 2.328 1.862 6.985 4.889 9.78 6.519zm-9.315 23.517V28.741c-1.629-1.165-4.656-3.26-5.588-4.192l-.932.466v21.189c1.165.697 3.493 2.561 5.589 4.189l.931-.464zm-17.696 2.328c0 2.097-2.794 4.191-5.821 6.52-3.958 3.262-6.054 4.891-6.054 4.891-1.862-1.164-3.027-1.396-6.053-1.396-3.726 0-5.821.466-8.382 1.396h-.233c2.096-3.959 6.287-7.217 12.108-7.217 2.561 0 5.588 1.162 7.45 2.326.466-.23 2.096-1.63 2.096-2.326 0-2.563-4.89-2.33-5.588-7.22l-5.588 5.354c-2.328-1.861-7.451-5.123-10.013-6.519v-.233c1.165-.699 1.63-1.629 1.63-4.19V28.042c5.355-2.793 10.478-5.821 13.505-8.149 2.328 2.095 6.985 4.889 9.546 6.287v.232c-1.164.698-1.629 1.863-1.629 6.054v12.34c-.001 4.194 3.026 3.959 3.026 7.451zm-10.478-4.189V28.275c-2.561-1.63-4.657-3.026-5.821-3.959l-.699.466v21.19c1.165.697 3.959 2.561 5.123 3.49l1.397-1.394zm-16.299-.235l-6.753 6.752c-1.629-1.396-4.656-3.492-6.52-4.422-2.328 1.629-3.958 3.025-6.287 4.422-3.958-1.396-6.985-4.891-6.985-8.848 0-5.588 4.424-8.383 8.615-9.779-3.493-1.629-6.519-4.89-7.218-8.85l11.409-6.984c2.329 1.862 7.218 5.123 10.246 6.752v.232c-1.397.932-1.863 2.097-1.863 4.89V47.6l3.028 1.862L54.14 47.6l.465.233zM41.566 34.794v-6.053c-1.863-1.165-4.89-3.26-6.287-4.425l-.931.466c.232 3.727.698 8.383 3.259 10.709.932-.23 3.028-.697 3.959-.697zm0 14.206V35.261c-4.424.465-6.985 3.726-6.985 7.683 0 3.028 2.095 6.056 5.355 7.22L41.566 49zm245.883-.932l-6.52 6.752c-1.632-1.398-4.426-3.027-5.822-3.959V28.042c-1.164-.699-2.793-1.862-3.492-2.561l-3.026 3.027V47.6c.931.468 2.562 1.397 3.259 1.862v.232l-4.889 4.891c-1.63-1.396-4.891-3.492-7.451-4.891v-.232c1.165-.697 1.629-1.862 1.629-4.889V27.809l-3.492-2.794-1.861 1.863-.467-.466 6.521-6.752c1.164 1.163 4.425 3.957 6.753 5.355v2.095l6.985-7.45c2.327 1.862 6.286 4.424 8.614 5.821v.233c-1.164.698-1.631 2.328-1.631 5.355V47.6l2.563 1.631 1.861-1.862.466.699zm-29.338-.235l-6.521 6.752c-1.861-1.396-4.656-3.492-6.52-4.422v-2.33l-7.451 6.752c-3.027-2.562-5.588-3.959-8.149-5.354V49c1.396-.699 1.63-2.097 1.63-5.355V26.878l-2.328-1.629-2.096 2.095-.466-.465 6.521-6.752c1.164 1.164 3.957 3.026 5.82 3.958v23.286c.698.465 2.327 1.396 3.492 2.326l3.027-2.793V26.879c-.698-.698-2.327-1.396-3.027-1.863v-.233c1.396-1.165 3.727-3.492 4.891-4.889 1.861 1.396 5.588 3.724 7.451 4.656-1.164.466-1.63 1.863-1.63 4.425v18.161L256.014 49l1.864-1.863.233.696zm-62.868-37.72c-1.63 1.165-3.493 3.259-4.425 4.657-.699-.931-2.562-2.794-4.656-4.424 1.396-1.166 3.491-3.493 4.656-4.89.932 1.397 3.027 3.725 4.425 4.657zm4.657 37.72l-6.521 6.752c-1.862-1.629-5.355-3.726-7.451-4.891v-.232c1.165-.697 1.63-2.094 1.63-4.424V26.645l-2.327-1.63-1.864 1.863-.466-.466 6.521-6.752c1.861 1.629 5.355 3.726 7.218 4.889-1.164.7-1.63 1.631-1.63 4.425V47.6l2.561 1.631 1.865-2.097.464.699zm-16.533-25.612c-.232 2.561-2.561 6.054-5.587 6.054-2.097 0-3.96-.932-4.891-2.561l-.699.698v20.026c1.864.931 4.192 2.327 5.124 3.024l1.862-1.862.466.468-6.753 6.752c-3.026-2.328-7.218-5.124-9.779-6.287 1.164-.465 1.63-1.396 1.63-3.027v-17.23l-3.26-2.793-1.863 2.095-.466-.466 6.287-6.752c1.863 2.096 5.123 4.424 6.521 5.589l5.355-5.589c.932 1.165 2.095 2.329 3.957 2.329.7-.002 1.398-.235 2.096-.468z"/><path fill="#FFF" d="M163.344 5.922c-.699 5.589-3.027 10.711-9.082 10.711-.697 0-2.096 0-2.561-.233v33.764c3.726-.468 8.149-2.33 9.779-3.726l.232.696c-2.794 3.959-10.245 10.013-19.791 10.013-11.875 0-21.189-7.916-21.189-20.489 0-10.943 9.082-18.859 14.903-20.723l.465.232c-4.191 3.726-6.985 8.848-6.985 16.764 0 6.753 2.794 11.177 6.985 14.438l1.862-1.164V29.672c0-3.492-.232-6.055-2.327-6.752v-.233c2.793-1.165 7.683-3.493 10.71-5.355v24.449c-2.562 1.163-7.218 4.424-9.548 6.053 2.563 1.862 6.521 2.795 10.712 2.795 1.397 0 2.096 0 3.492-.232V16.633c-7.218-.698-15.135-3.726-21.188-3.726-4.191 0-7.453 1.863-7.453 4.892 0 1.862 1.631 2.793 2.563 3.259l-.932.465c-1.862-.931-3.958-2.794-3.958-6.985 0-6.053 4.89-10.012 11.41-10.012 9.08 0 17.463 4.89 25.612 4.89 2.561 0 4.656-1.396 5.821-3.725l.468.231zM310.5 29.905c-4.191 2.561-9.313 6.053-13.271 8.846v7.221c1.631.697 4.656 2.561 6.055 3.49l3.492-3.49.466.466-8.149 8.382c-2.561-1.861-7.451-4.891-10.941-6.986V47.6c1.164-.231 1.861-1.86 1.861-5.588v-13.97c4.891-2.095 9.313-5.122 12.807-8.149l7.68 10.012zm-6.753 3.493c-1.163-1.398-4.424-6.52-5.82-8.849l-.466.466v12.574l6.286-4.191zm-78.002-6.753c-1.164.465-1.63 2.096-1.63 5.821v14.437c-3.26 1.165-10.244 4.89-13.506 7.917-2.562-1.63-6.52-4.425-9.545-6.287V48.3c1.396-.932 1.629-2.096 1.629-6.287V11.045c0-2.329-.467-3.493-.933-4.424l.233-.234c1.164.932 1.861 2.097 2.096 3.493 1.631-2.794 3.727-4.423 7.684-5.122v.233c-1.164 1.396-1.861 2.562-1.861 5.355v16.299l6.286-6.752c2.329 1.862 7.218 4.889 9.547 6.752zm-9.08 23.051V28.042l-3.958-2.793-2.329 2.328v18.396l5.588 4.19.699-.467z"/></svg>