<?xml version="1.0" encoding="utf-8"?>
<!-- Generator: Adobe Illustrator 20.1.0, SVG Export Plug-In . SVG Version: 6.00 Build 0)  -->
<svg version="1.1" id="Layer_1" xmlns="http://www.w3.org/2000/svg" xmlns:xlink="http://www.w3.org/1999/xlink" x="0px" y="0px"
	 viewBox="0 0 417.6 54" style="enable-background:new 0 0 417.6 54;" xml:space="preserve">
<style type="text/css">
	.st0{fill:#FFFFFF;}
</style>
<g>
	<path class="st0" d="M145.8,49.7h-15.2v-2.9c2.8,0,3.4-0.8,3.4-3.3V31.2c0-3.1-1-4.3-2.8-4.3c-2.2,0-4.2,1.4-5.8,3.1v13.4
		c0,2.2,0.7,3.2,3.4,3.2v2.9h-15.3v-2.9c2.3,0,3.5-0.8,3.5-2.9V31.7c0-2.8-0.5-3.4-2.2-3.4h-1.3v-3c3.7-0.8,7.9-2.3,11.6-4.1
		l0.4,0.3V25c2-1.9,5.5-4.6,9.1-4.6c5.1,0,7.9,2.7,7.9,9.4v13.6c0,2.7,0.7,3.3,3.4,3.3V49.7z"/>
	<path class="st0" d="M85.3,49.7H70v-2.9c2.5,0,3.4-0.9,3.4-2.9V14.7c0-2.6-0.5-3.1-2.3-3.1h-1.3V8.6c4.2-0.9,7.7-2.4,11.6-4.1
		l0.4,0.2v39c0,1.9,0.9,2.9,3.4,2.9V49.7z"/>
	<path class="st0" d="M72.5,22.5l-4.5,6.2c-0.5-1-1.4-1.5-2.8-1.5c-2.1,0-3.4,1.2-4.7,3.4v13c0,2.2,0.8,3.2,3.4,3.2v2.9H48.9v-2.9
		c2.5,0,3.4-0.8,3.4-2.7V31.1c0-2.2-0.5-2.9-2.4-2.9h-1.2v-2.9c3.9-0.9,7.8-2.3,11.4-4.1l0.4,0.2v4.1h0.1c1.8-3,3.9-5.1,6.8-5.1
		C70.1,20.4,71.6,21.3,72.5,22.5z"/>
	<path class="st0" d="M201.7,35.3c0,8.8-6.1,14.9-13.9,14.9c-7.7,0-14-6.1-14-14.9c0-9.7,6.1-14.9,14-14.9
		C195.5,20.4,201.7,25.6,201.7,35.3z M193.2,35.3c0-7.8-2.3-11-5.5-11c-3.2,0-5.4,3.7-5.4,11c0,7.6,2.2,11,5.4,11
		C190.9,46.3,193.2,42.9,193.2,35.3z"/>
	<path class="st0" d="M174.7,49.7h-10.3c-0.5-1-0.9-2.2-1-3.2c-1.5,1.7-3.8,3.5-7.5,3.5c-6.4,0-11-4.5-11-14.4c0-10,5.3-15,12.7-15
		c2.6,0,4.4,0.5,5.4,1v-6.8c0-2.5-0.5-3.1-2.7-3.1h-0.9V8.6c3.8-0.9,8.2-2.4,11.6-4.1l0.5,0.2v39c0,2,0.9,2.9,3.4,2.9V49.7z
		 M162.9,43V25.8c-0.9-0.7-2.4-1.3-4-1.3c-4.3,0-5.5,4.7-5.5,10.5c0,6.7,1.6,10.3,5.2,10.3C160.2,45.2,162,44.1,162.9,43z"/>
	<path class="st0" d="M112.3,46.9c-1.5,1.7-3.9,3.4-7,3.4c-3.4,0-4.4-1.7-5-3.5c-2.3,2.2-3.9,3.5-8,3.5c-4.1,0-7-3-7-7.1
		c0-5,2.4-9,14.6-11.1v-3c0-2.2-1-3.4-3.2-3.4c-2.8,0-4.7,0.8-7.1,2.8l-2.2-2.7c3.3-3.1,6.9-5.3,11.8-5.3c7,0,9.1,3.7,9.1,9.2l0,14
		c0,1.3,0.5,1.7,1.2,1.7c0.6,0,1.1-0.2,1.4-0.5L112.3,46.9z M99.9,43.6v-7.9c-2.1,0-6.2,2.3-6.2,5.8c0,2.2,1.2,3.4,2.9,3.4
		C97.7,44.9,98.7,44.6,99.9,43.6z"/>
	<path class="st0" d="M47.3,26.8c0,15.4-10.8,23.3-21.5,23.3c-11.1,0-21.5-7.8-21.5-23.3c0-15.9,11.4-23.3,21.5-23.3
		C35.8,3.6,47.3,11,47.3,26.8z M36.8,26.9C36.8,13.7,31.6,8,25.9,8C20,8,14.8,13.7,14.8,26.8c0,13.5,5.3,18.9,11.1,18.9
		C31.9,45.7,36.8,39.9,36.8,26.9z"/>
	<path class="st0" d="M413.3,49.6h-15.2v-3c2.5,0,3.4-0.9,3.4-2.9V14.6c0-2.6-0.6-3.1-2.4-3.1h-1.2V8.6c4.2-1.1,8-2.4,11.6-4.1
		l0.5,0.2v39c0,1.9,0.8,2.9,3.4,2.9V49.6z"/>
	<path class="st0" d="M374.4,49.6h-15.2v-2.9c2.8,0,3.4-0.8,3.4-3.3V31.2c0-3.1-1-4.3-2.8-4.3c-2.2,0-4,1.3-5.8,3.1v13.4
		c0,2.2,0.7,3.2,3.4,3.2v2.9H342v-2.9c2.3,0,3.4-0.8,3.4-2.9V31.6c0-2.7-0.3-3.4-2.2-3.4h-1.3v-3c3.9-0.9,7.9-2.4,11.6-4.1l0.4,0.3
		V25c2-1.9,5.7-4.6,9.1-4.6c5.1,0,7.9,2.8,7.9,9.4v13.6c0,2.7,0.7,3.3,3.4,3.3V49.6z"/>
	<circle class="st0" cx="332.6" cy="11.5" r="5"/>
	<path class="st0" d="M340.3,49.6H325v-2.9c2.5,0,3.4-0.8,3.4-2.9V31.3c0-2.7-0.5-3.1-2.3-3.1h-1.3v-2.9c4.3-1.1,7.9-2.4,11.6-4.1
		l0.5,0.2v22.3c0,1.9,0.9,2.9,3.4,2.9V49.6z"/>
	<path class="st0" d="M324,46c-2.5,2.7-5.2,4.2-8.5,4.2c-5.5,0-7.6-3-7.6-7.5V26h-4.5l1.2-4.5h3.2v-6.1c3.4-1.3,7.8-4.4,7.8-4.4
		l0.5,0.2v10.4h6.7l-1,4.4h-5.7v16.2c0,2.1,0.7,2.8,2.1,2.8c1.2,0,2.5-0.5,4-1.8L324,46z"/>
	<path class="st0" d="M305.7,49.6h-15.2v-2.9c2.8,0,3.4-0.8,3.4-3.3V31.2c0-3.1-1-4.3-2.8-4.3c-2.2,0-3.9,1.1-5.9,3.1v13.4
		c0,2.2,0.7,3.2,3.4,3.2v2.9h-15.3v-2.9c2.3,0,3.5-0.8,3.5-2.9V31.6c0-2.7-0.3-3.4-2.3-3.4h-1.3v-3c3.9-0.9,7.9-2.3,11.6-4.1
		l0.4,0.3V25c2-1.9,5.7-4.6,9.1-4.6c5.1,0,8,2.8,8,9.4v13.6c0,2.7,0.7,3.3,3.4,3.3V49.6z"/>
	<path class="st0" d="M245.8,36.6c0,9.2-6.4,13.7-16,13.7c-5.1,0-8.6-1.8-10.2-1.7c0,0-1.6,0.1-1.7,1.9h-3.3V35.5h3.2
		c1.9,10.6,7.6,11,11.2,11c5.5,0,8.6-2.2,8.6-6.2c0-3.8-2.3-6-10.7-9.7c-6.7-3-11.9-6.8-11.9-13.6c0-7.8,6.2-12,14.4-12
		c4.4,0,7.7,2.1,8.8,2.1c0.6,0,1.2-0.5,1.5-1.5h3.5V19h-3.2c-0.6-6.2-4.2-10-10.7-10c-4.2,0-6.9,1.8-6.9,4.7c0,3.6,2,4.7,11.2,8.6
		C240.1,25,245.8,28.7,245.8,36.6z"/>
	<path class="st0" d="M398.9,35.4H382c0,6.5,2.8,9.7,6.9,9.7c3.5,0,5.6-1.8,6.7-3.2l2.4,2.2c-3.3,3.7-6.1,5.8-12.1,5.8
		c-7.1,0-12.2-5.6-12.2-14.1c0-9.5,5.9-15.4,12.9-15.4C394.9,20.4,398.9,26.3,398.9,35.4z M390.2,31.8c0-4.4-0.9-7.7-3.8-7.7
		c-2.9,0-4.3,3-4.3,7.7H390.2z"/>
	<path class="st0" d="M272.4,35.4h-16.9c0,6.7,3,9.7,6.9,9.7c3.6,0,5.6-1.8,6.7-3.2l2.4,2.2c-3.3,3.7-6.1,5.8-12.1,5.8
		c-7.1,0-12.3-5.6-12.3-14.1c0-9.5,5.9-15.4,13-15.4C268.4,20.4,272.4,26.3,272.4,35.4z M263.7,31.8c0-4.4-0.9-7.7-3.8-7.7
		c-2.9,0-4.3,3-4.3,7.7H263.7z"/>
</g>
</svg>
