<svg id="Layer_1" xmlns="http://www.w3.org/2000/svg" viewBox="0 0 576 108" enable-background="new 0 0 576 108"><style>._x0031__x0020_1{fill:url(#SVGID_1_)}._x0034__x0020_1{fill:url(#SVGID_2_)}.st0{fill:#000}.st1{filter:url(#Adobe_OpacityMaskFilter)}.st2{fill:url(#SVGID_4_)}.st3{mask:url(#SVGID_3_);fill:#000}.st4{filter:url(#Adobe_OpacityMaskFilter_1_)}.st5{fill:url(#SVGID_6_)}.st6{mask:url(#SVGID_5_);fill:#000}</style><linearGradient id="SVGID_1_" gradientUnits="userSpaceOnUse" x2="1"><stop offset="0" stop-color="#000"/><stop offset="1"/></linearGradient><linearGradient id="SVGID_2_" gradientUnits="userSpaceOnUse" x2="-1"><stop offset="0" stop-color="#000"/><stop offset="1"/></linearGradient><path class="st0" d="M449.2 46.9c-32.4 2.3-61.5-2.8-89.2-8.9-27.7-6.1-65.7-16-83.6-20.7-17.8-4.7-50.2-10.8-76.5-12.2-26.3-1.4-54.9 4.7-76.1 12.2-3.2 1.1-6.2 2.3-9 3.6v8.8c11.7-4.9 21-6.8 42.8-10 25.4-3.8 54.5-.9 85.9 3.3C275 27.1 337 43.1 368.9 48.3c31.9 5.2 54 5.2 54 5.2 10.4.3 26.5-.4 37.4-1.6 5.5-.6 13.3-2.1 20.9-3.7v-5.1c-7.3 1.5-16.9 2.7-32 3.8z"/><defs><filter id="Adobe_OpacityMaskFilter" filterUnits="userSpaceOnUse" x="90.5" y="20.9" width="24.3" height="21.8"><feColorMatrix values="1 0 0 0 0 0 1 0 0 0 0 0 1 0 0 0 0 0 1 0"/></filter></defs><mask maskUnits="userSpaceOnUse" x="90.5" y="20.9" width="24.3" height="21.8" id="SVGID_3_"><g class="st1"><linearGradient id="SVGID_4_" gradientUnits="userSpaceOnUse" x1="113.993" y1="31.747" x2="91.501" y2="31.747"><stop offset="0" stop-color="#000"/><stop offset="1"/></linearGradient><path class="st2" d="M90.5 35.1v7.5s3.3-3.3 18.3-10.3c2.1-1 4.1-1.9 6-2.7v-8.8c-15.5 6.9-24.3 14.3-24.3 14.3z"/></g></mask><path class="st3" d="M90.5 35.1v7.5s3.3-3.3 18.3-10.3c2.1-1 4.1-1.9 6-2.7v-8.8c-15.5 6.9-24.3 14.3-24.3 14.3z"/><defs><filter id="Adobe_OpacityMaskFilter_1_" filterUnits="userSpaceOnUse" x="481.2" y="29.8" width="41.4" height="18.5"><feColorMatrix values="1 0 0 0 0 0 1 0 0 0 0 0 1 0 0 0 0 0 1 0"/></filter></defs><mask maskUnits="userSpaceOnUse" x="481.2" y="29.8" width="41.4" height="18.5" id="SVGID_5_"><g class="st4"><linearGradient id="SVGID_6_" gradientUnits="userSpaceOnUse" x1="482.376" y1="38.99" x2="521.174" y2="38.99"><stop offset="0" stop-color="#000"/><stop offset="1"/></linearGradient><path class="st5" d="M522.6 35.5l-2.4-5.7s-3.4 2.5-17.5 7.2c-7.5 2.5-13.1 4.5-21.5 6.1v5.1c7.5-1.6 14.8-3.4 19.4-4.7 9.2-2.6 22-8 22-8z"/></g></mask><path class="st6" d="M522.6 35.5l-2.4-5.7s-3.4 2.5-17.5 7.2c-7.5 2.5-13.1 4.5-21.5 6.1v5.1c7.5-1.6 14.8-3.4 19.4-4.7 9.2-2.6 22-8 22-8z"/><path class="st0" d="M34.5 88.9c0 4.9-.7 9.1-2.2 10.6-1.4 1.4-3 2.1-7.7 2.1v1.2h32.1l-.1-1.2c-4.7-.1-6.2-.8-7.7-2s-2.3-5.7-2.3-11.1V40H34.5v48.9zM73 22.5H9.3L6.9 40h2c.5-4.8 2.5-8.1 4.4-10 2.2-2.1 7.8-3.1 14.5-3.1h1.9c2.2 0 3.6.2 4 .5.5.3.7 1.3.7 2.9V40h12.1v-9.7c0-1.5.2-2.4.7-2.8.4-.4 1.9-.6 4.5-.6 7.9 0 15.1 1 17.1 3 1.8 1.8 3.8 5.1 4.4 10.1h2.1L73 22.5zm-11.6 80.3v-1.1c2-.1 4.4-.5 5-1.3.6-.8 1-3.1 1-5.9V72.3c0-2.6-.2-4.2-.7-4.8-.4-.5-1.4-.8-2.8-.8h-1.1v-1.6c1.2-.2 2.8-.7 4.6-1.3 1.8-.7 4.5-1.5 6.7-2.6v33.7c0 2.6.3 4.8 1 5.6.6.8 2.8 1.2 4.7 1.3v1.1H61.4zm45.6 1.1v-5.6c-1.8 1.8-3.6 3.2-5.5 4-1.9.9-3.8 1.3-5.9 1.3-4.6 0-8.3-1.8-11.1-5.4-2.7-3.6-4.1-8.4-4.1-14.4 0-6.6 1.6-12 4.8-16.2 3.2-4.2 7.3-6.3 12.3-6.3 1.9 0 3.6.3 5.2 1s3 1.7 4.2 3V51.5c0-2.1-.3-3.5-1-4.3-.7-.7-1.9-1.1-3.8-1.1h-.8v-1.3c2.6-.6 4.9-1.3 7-2 2.1-.7 3.9-1.4 5.4-2.2v52.9c0 2 .2 3.2.6 3.8.4.5 1.3.8 2.6.8h1.3v1.5c-2.1.6-5.5 1.9-10.2 3.8l-1 .5zm0-8.5V73c0-2.3-.9-4.5-2.8-6.4-1.8-1.9-3.9-2.9-6.3-2.9-3.2 0-5.8 1.4-7.8 4.3s-3 6.6-3 11.3c0 5.9 1.1 10.6 3.3 14.2 2.2 3.5 5.1 5.3 8.8 5.3 1.3 0 2.6-.3 3.9-.9 1.5-.5 2.8-1.4 3.9-2.5zm42.8-7.8l1.3.9c-2 5.2-4.3 9-6.9 11.5-2.6 2.5-5.6 3.8-9.1 3.8-4.3 0-7.7-1.9-10.4-5.6-2.7-3.8-4-8.7-4-14.7 0-6.7 1.4-12 4.3-16.1 2.9-4.1 6.7-6.1 11.3-6.1 3.8 0 6.8 1.4 9.1 4.3 2.3 2.8 3.6 6.8 3.8 11.7H126v.9c0 5.7 1.1 10.3 3.3 13.7 2.2 3.4 5.2 5.1 8.9 5.1 2.3 0 4.4-.8 6.3-2.4 2-1.5 3.7-3.8 5.3-7zm-23.5-12.8h13.9c.9 0 1.5-.1 1.6-.3.2-.2.3-.6.3-1.3 0-2.6-.7-4.8-2-6.6-1.4-1.8-3.1-2.6-5.2-2.6-2.4 0-4.3.9-5.8 2.8-1.6 1.9-2.5 4.6-2.8 8zm40.9 29.1L155 69c-.7-1.8-1.3-3.1-1.9-3.8-.6-.7-1.3-1.1-2.2-1.1h-.3v-1.6H165V64h-.6c-.9 0-1.5.2-1.9.7-.4.4-.6 1.2-.6 2.2 0 .4.1.9.2 1.6.1.6.3 1.3.6 2.1l7.4 21 6.6-17.1-2.1-5.8c-.7-1.9-1.4-3.1-2.1-3.6-.7-.5-1.8-.8-3.2-.9v-1.6h17V64h-.7c-1.4 0-2.4.2-3 .7-.6.5-1 1.2-1 2.2 0 .4.1 1 .2 1.6.1.6.3 1.2.5 1.9l7.3 20.3 6.6-19c.4-1.2.7-2.3.9-3.2.2-.9.3-1.6.3-2.1 0-.9-.3-1.5-.8-1.9-.5-.3-1.6-.5-3.4-.6v-1.6h10.9V64c-.8.1-1.5.5-2.1 1.3-.6.7-1.2 2.2-2 4.5l-11.5 34.1h-1.2l-9.2-25.4-9.6 25.4h-1.3zm59.9-5.8c-2.3 1.9-4.5 3.3-6.5 4.2-2.1.9-4.1 1.3-6 1.3-2.9 0-5.2-.9-6.9-2.6-1.7-1.7-2.6-4-2.6-7 0-3.6 1.5-6.7 4.6-9.2 3.1-2.5 8.8-5.2 17.2-8v-4.7c0-3.2-.5-5.5-1.5-6.8-1-1.3-2.7-1.9-5.2-1.9-1.8 0-3.3.5-4.6 1.4-1.3.9-1.9 2-1.9 3.3 0 .1.1.5.2 1.1.1.6.2 1.2.2 1.7 0 1.1-.4 1.9-1.1 2.6-.7.7-1.6 1-2.7 1s-2.1-.4-2.8-1.1c-.7-.8-1.1-1.8-1.1-3.1 0-2.4 1.4-4.6 4.1-6.4 2.7-1.8 6-2.7 10-2.7 4.6 0 8 1.1 10.2 3.2 2.2 2.1 3.3 5.4 3.3 10v19.9c0 1.5.2 2.5.6 3.2.4.6 1 1 1.8 1 .6 0 1.2-.1 1.7-.4.5-.2 1-.7 1.7-1.3l1 1.2c-1.2 1.7-2.5 3-4 3.9-1.5.9-2.9 1.4-4.4 1.4-1.3 0-2.4-.4-3.2-1.3-1-.6-1.6-2-2.1-3.9zm-.2-3.5V79.2c-5.2 1.9-8.9 3.8-11.3 5.8-2.3 2-3.5 4.3-3.5 6.9 0 2.2.6 4 1.9 5.4 1.3 1.4 2.9 2.2 4.8 2.2 1.6 0 3.1-.4 4.6-1.3 1.5-1 2.7-2.1 3.5-3.6zM241 65.4v-1.1c2.2-1.6 4.1-3.6 5.8-5.9 1.6-2.4 3-5.1 4.1-8.2h1.3v12.3h7.9v3h-7.9v27.3c0 2.2.3 3.8.8 4.7.5.9 1.4 1.3 2.6 1.3.8 0 1.6-.2 2.4-.7.8-.5 1.6-1.2 2.3-2.2l.9 1.2c-1.4 2.4-2.8 4.1-4.2 5.2-1.4 1.1-3 1.6-4.7 1.6-2.2 0-3.8-.8-4.9-2.3-1-1.5-1.5-3.9-1.5-7.1v-29H241zm50.5 22.2l1.3.9c-1.9 5.2-4.2 9-6.8 11.5-2.6 2.5-5.5 3.8-8.9 3.8-4.2 0-7.6-1.9-10.2-5.6-2.6-3.8-3.9-8.7-3.9-14.7 0-6.7 1.4-12 4.3-16.1 2.8-4.1 6.5-6.1 11.1-6.1 3.7 0 6.7 1.4 9 4.3 2.3 2.8 3.5 6.8 3.8 11.7h-22.8v.9c0 5.7 1.1 10.3 3.3 13.7 2.2 3.4 5.1 5.1 8.7 5.1 2.2 0 4.3-.8 6.2-2.4 1.7-1.5 3.4-3.8 4.9-7zm-23-12.8h13.6c.9 0 1.4-.1 1.6-.3.2-.2.3-.6.3-1.3 0-2.6-.7-4.8-2-6.6-1.3-1.8-3-2.6-5.1-2.6-2.4 0-4.3.9-5.7 2.8-1.5 1.9-2.4 4.6-2.7 8zm25.2 28v-1c2.2-.2 3.7-.8 4.5-1.7.8-1 1.2-3.4 1.2-6v-21c0-2.5-.3-4.1-.9-4.8-.6-.7-1.7-1.1-3.5-1.1h-1.2v-1.6c2.7-.9 5-1.7 6.9-2.5 1.9-.7 3.5-1.4 5-2v8.1c1.7-2.6 3.3-4.5 4.7-5.8 1.5-1.3 2.8-1.9 4.2-1.9 1.2 0 2.2.4 3 1.2.8.8 1.2 1.9 1.2 3.1 0 1.2-.3 2.2-.8 2.9-.5.7-1.2 1.1-2.1 1.1-.8 0-1.8-.4-2.8-1.2-1-.8-1.7-1.2-2.1-1.2-.8 0-1.5.4-2.3 1.3-.8.9-1.8 2.3-2.9 4.2v22c0 2.4.4 4.7 1.2 5.5.8.8 3.6 1.3 6.1 1.5v1h-19.4zm138.6-15.2l1.3.9c-2 5.2-4.3 9-7 11.5s-5.7 3.8-9.2 3.8c-4.3 0-7.8-1.9-10.6-5.6-2.7-3.7-4.1-8.6-4.1-14.6 0-6.6 1.5-12 4.4-16 2.9-4.1 6.8-6.1 11.5-6.1 3.8 0 6.9 1.4 9.2 4.2 2.3 2.8 3.6 6.7 3.9 11.7h-23.5v.9c0 5.7 1.1 10.3 3.4 13.7 2.3 3.4 5.3 5.1 9 5.1 2.3 0 4.4-.8 6.4-2.3 2-1.7 3.8-4.1 5.3-7.2zm-23.7-12.8h14.1c.9 0 1.5-.1 1.7-.3.2-.2.3-.6.3-1.3 0-2.6-.7-4.8-2.1-6.5-1.4-1.7-3.1-2.6-5.3-2.6-2.4 0-4.4.9-5.9 2.8-1.6 1.9-2.5 4.5-2.8 7.9zm106.2 12.8l1.3.9c-2 5.2-4.3 9-7 11.5s-5.7 3.8-9.2 3.8c-4.3 0-7.8-1.9-10.6-5.6-2.7-3.7-4.1-8.6-4.1-14.6 0-6.6 1.5-12 4.4-16 2.9-4.1 6.8-6.1 11.5-6.1 3.8 0 6.9 1.4 9.2 4.2 2.3 2.8 3.6 6.7 3.9 11.7h-23.5v.9c0 5.7 1.1 10.3 3.4 13.7 2.3 3.4 5.3 5.1 9 5.1 2.3 0 4.4-.8 6.4-2.3 1.9-1.7 3.7-4.1 5.3-7.2zM491 74.8h14.1c.9 0 1.5-.1 1.7-.3.2-.2.3-.6.3-1.3 0-2.6-.7-4.8-2.1-6.5-1.4-1.7-3.1-2.6-5.3-2.6-2.4 0-4.4.9-5.9 2.8-1.6 1.9-2.5 4.5-2.8 7.9zm-41.3 29l-12.6-34c-.9-2.3-1.6-3.8-2.2-4.6-.6-.7-1.4-1.1-2.2-1.1h-.1v-1.6h15.6v1.6c-1.7 0-2.9.2-3.6.7-.7.5-1 1.3-1 2.5 0 .4.1.8.2 1.3s.3 1.1.5 1.7l7.9 21.9 7.1-20.9.1-.4c.7-2.1 1-3.4 1-4.1 0-.9-.3-1.5-.9-1.9-.6-.4-1.7-.6-3.1-.7v-1.6h11v1.6c-.9.1-1.7.4-2.2 1-.5.6-1.2 2.1-2 4.4l-12.1 34.3h-1.4zm81.6 0L518.9 69c-.7-1.8-1.3-3.1-1.9-3.8-.6-.7-1.4-1.1-2.3-1.1h-.3v-1.6H529v1.6h-.6c-.9 0-1.6.2-2 .6-.4.4-.6 1.2-.6 2.2 0 .4.1.9.2 1.5s.3 1.3.6 2.1l7.5 20.8 6.6-17-2.1-5.8c-.7-1.9-1.4-3.1-2.1-3.6-.7-.5-1.8-.8-3.2-.9v-1.6h17.2V64h-.5c-1.4 0-2.4.2-3 .7-.7.5-1 1.2-1 2.2 0 .4.1 1 .2 1.6.1.6.3 1.2.6 1.9l7.4 20.2 6.6-18.9c.4-1.2.7-2.3.9-3.2.2-.9.3-1.6.3-2.1 0-.9-.3-1.5-.8-1.9-.5-.3-1.7-.5-3.4-.6v-1.6h11v1.6c-.8.1-1.5.5-2.1 1.3-.6.7-1.3 2.2-2 4.4l-11.7 34h-1.2l-9.3-25.3-9.8 25.3h-1.4z"/><circle class="st0" cx="70.4" cy="47.3" r="3.6"/><path class="st0" d="M467.5 102.8v-1.1c2-.1 4.4-.5 5-1.3.6-.8 1-3.1 1-5.9V72.3c0-2.6-.2-4.2-.7-4.8-.4-.5-1.4-.8-2.8-.8h-1v-1.6c1.2-.2 2.8-.7 4.6-1.3 1.8-.7 4.5-1.5 6.7-2.6v33.7c0 2.6.3 4.8 1 5.6.6.8 2.8 1.2 4.7 1.3v1.1h-18.5z"/><circle class="st0" cx="476.5" cy="47.3" r="3.6"/><path class="st0" d="M403.9 100.3c-1.5-.7-3.3-2.2-4.5-3.7-1.2-1.4-3.9-5.1-3.9-5.1-4.2-5.4-10.6-14.4-18.9-27.5 5.3-1.5 9.9-4.2 12.7-7.6 2.7-3.5 4.1-7.8 4.1-13.1 0-6.7-1.9-11.8-5.8-15.4-3.9-3.5-9.5-5.3-16.8-5.3h-35.4V24c4 .1 8.8 1.9 10.1 3.3 1.3 1.4 2 4 2 7.9V89c0 4.3-.6 7.3-1.9 8.9-1.3 1.6-5.7 3.4-9 3.4h-1.2v1.4h33.5v-1.4h-.8c-3.6 0-7.1-1.8-8.5-3.4-1.3-1.6-2-4.6-2-8.9V64.8h7.2c4.1 6.8 22.3 32.5 26.4 37.9h17.7v-1.2c0 .1-3.4-.5-5-1.2zm-43.8-38.2h-.4c-1 0-2.1-.1-2.1-.1V33.3c0-2.7.4-4.4 1.1-5.2.7-.8 2.5-1.2 5.4-1.2 6.4 0 11.1 1.4 14 4.1 3 2.7 4.4 7 4.4 12.8 0 6.4-1.8 11-5.3 13.9-3.5 2.9-9.2 4.4-17.1 4.4z"/></svg>
