<svg id="Layer_1" xmlns="http://www.w3.org/2000/svg" viewBox="0 0 500 82.5"><style>.st0{fill:#fff}</style><path class="st0" d="M237.6 55.1l-.9-.9-1.8 1.1c-.7-.8-1.2-1.2-2.1-1.7-.8-.4-1.5-.7-2.3-.9V21.9c0-2 .1-3.6.8-5.3.4-.9.8-1.5 1.2-2.1l-.7-.4c-1.8 1.5-2.9 2.2-5 3.1-1.7.7-3.1 1.2-4.5 1.4l-.4.7c.5.4 1 .9 1.2 1.3.7 1.1.9 2.5.9 4.2v28.6c-2.3 1.4-3.6 2.8-3.8 3.9 0 .2.2.5.2.5.9-.4 1.5-.5 2.6-.5 2 0 4.3.9 7 3.6 1.1-1.1 2-1.9 3.4-2.9 1.7-1.2 2.6-1.8 4.2-2.9zM207 53.5l-1.9 1.6c-5.8-.6-8.3-3.1-8.3-7.4 0-2.3 1-4.4 2.2-5.6l4.4 5 .9-.9-10.1-11.4c1.4.4 2.3.9 3.8.9 2.4 0 3.7-.2 6-1.3l3.1 2.5v16.6zm11.2 1.2l-.4-.4c-.5.1-.9.1-1.4.1-1.9 0-3.2-2.2-3.2-3.9V35.1c.8-.4 1.2-.7 1.8-1.3.5-.6.9-1.2 1.1-1.8l-.4-.4c-.7.4-1.2.5-2 .5-1.6 0-2.9-1.8-3.9-3.9-3.1 3.7-5.7 5-7.1 5-.9 0-2.9-1-4.6-5.2-1.1 1.4-1.9 2-3.4 3-.9.5-2.1 1.1-3.3 1.5v1L198 41c-4.3 2-7.3 5.3-7.3 10.1 0 5.4 5.1 8.1 9.9 9.9l6.6-6.3c.3 1.7.7 2.6 1.8 3.9 1.2 1.4 2.4 1.9 3.9 2.4.9-1.2 1.4-1.9 2.5-3.1 1.1-1.4 1.7-2 2.8-3.2zm-28.6.1l-.9-1.2-2 1.2c-.7-.4-1.2-.8-2-1.2-.8-.4-1.2-.5-2-.8V32.3h2.6c.8 0 1.2.1 1.9.4.4.1.6.3.9.4l.4-.2c-.3-.8-.4-1.2-.4-2 0-1.1.1-1.8.5-2.7l-.4-.3c-.4.3-.7.5-1.2.7-.7.2-1.2.3-2 .3h-2.2v-4.4c0-1.1.1-2.3.6-3.6.3-.9.4-1.3.8-2.1h-.4c-1.4 1.4-2.3 2.1-4.1 2.9-1.7.8-3.1 1.1-4.5 1.3l-.6.7c.4.3.7.4 1 .9.4.5.6 1 .6 1.7V29h-2.6c-.7 0-1.1-.2-1.8-.4-.4-.1-.7-.2-1.1-.4.2.9.3 1.5.2 2.5-.1 1-.1 1.8-.5 2.6l.3.1c.4-.2.5-.4.9-.5.6-.3 1.2-.4 1.7-.4h2.9v20.4c-1.5.4-2.4 1-3.5 2.1-.9.9-1.4 1.8-1.9 3 1.3-.4 2-.7 3.4-.7 2.4 0 5.8 2 7.8 3.7 1.1-1.2 1.9-1.8 3.2-2.9 1.6-1.5 3.2-2.5 4.4-3.3zm-20.1.6l-.2-.7h-1.5c-1 0-1.5-.3-2.3-1-.9-.9-1.4-2.2-1.4-3.7V36c.9-.4 1.5-.9 2.3-1.8.9-1 1.5-2.2 1.5-3.4-.9.6-1.5.9-2.6.9-1.6 0-2.7-1.2-4.5-3.6-1.5 1.6-2.6 2.5-4.3 3.7-1.3.9-2.8 1.8-4.7 2.8l.6 1.2 2.3-1.2c.4.4.7.7 1.4 1.2.6.4 1.2.5 1.8.7v16.4c0 2.4.4 4.5 1.8 5.9 1.3 1.4 2.5 1.8 4.2 2.2.7-1.1 1.3-1.8 2.3-2.8 1-1.3 2.1-2 3.3-2.8zM166.1 21c-.5.2-1.6.4-2 .4-1.4 0-2.3-.9-3-2.8l-.2-.1c-.8.9-1.5 1.4-2.6 2.1-.9.6-2.4 1.3-3.8 2l.6 1 1-.5c1.7 1.4 2.6 2 4.5 2 2.7.1 5.5-1.7 5.5-4.1zm-26.6 34.4l-2.1.8c-1.1-1.1-2-1.8-3.4-2.6-1.6-.9-3.2-1.6-4.4-1.9V38.6l6.9-4.5c.5.4.9.7 1.5 1.1.5.4.9.6 1.5.8v19.4zM150 31.9l-.3-.4c-.8.4-1.3.5-2.2.5-2.3 0-3.8-1.8-4.7-3.9l-13.2 8.7c0-2.3-.1-4.2-.9-5.6-.9-1.5-1.6-2.7-3.2-3-.9 1.3-1.5 1.9-2.6 3-1.5 1.5-3 2.3-4.4 3.1v.4c1.2-.1 2.1.1 3.1.9 1.2.9 1.5 2 1.5 3.4v13c-1.8.4-2.8 1.2-4 2.5-1.3 1.4-2 3.1-2 4.5v1.5h.2c.5-1.1.9-1.5 1.9-2.3 1.3-1 2.4-1.5 3.9-1.5v9.5c0 1.6-.2 2.5-.9 3.9-.4.9-.7 1.3-1.2 2h1c.4-.1 1.9-.7 2.4-.9 1.7-1 4.2-1.6 6.9-1.6v-.4c-.4-.4-.7-.7-1-1.2-.5-.8-.6-1.6-.6-2.3v-7.2c.8.3 1.2.5 1.8.9.6.4 1 .9 1.5 1.5 3.1-3.1 5.8-4.5 10.3-4.5 1.5 0 2.3.3 3.8.4l.4-.2c-.4-.5-.5-.9-.7-1.5-.4-1.1-.7-1.8-.7-2.9V35.6c.8-.3 1.5-.8 2.3-1.5.8-.8 1.2-1.4 1.6-2.2zm-45.1 21.6l-1.9 1.6c-5.8-.6-8.3-3.1-8.3-7.4 0-2.3 1-4.4 2.2-5.6l4.4 5 .9-.9L92 34.7c1.4.4 2.3.9 3.8.9 2.4 0 3.6-.2 6-1.3l3.1 2.5v16.7zm11.3 1.2l-.4-.4c-.5.1-.9.1-1.4.1-1.9 0-3.2-2.2-3.2-3.9V35.1c.8-.4 1.2-.7 1.8-1.3.5-.6.9-1.2 1.1-1.8l-.4-.4c-.7.4-1.2.5-2 .5-1.6 0-2.9-1.8-3.9-3.9-3.1 3.7-5.7 5-7.1 5-.9 0-2.9-1-4.6-5.2-1.1 1.4-1.9 2-3.4 3-.9.5-2.1 1.1-3.3 1.5v1l6.6 7.4c-4.3 2-7.3 5.3-7.3 10.1 0 5.4 5.1 8.1 9.9 9.9l6.6-6.3c.3 1.7.7 2.6 1.8 3.9 1.2 1.4 2.4 1.9 3.9 2.4.9-1.2 1.4-1.9 2.5-3.1 1-1.3 1.7-1.9 2.8-3.1zm-29.2-7l-.4-.2c-1.2 1.4-2.1 2.2-3.7 3.2-1.7 1.1-3 1.8-4.6 2.3V21.2c1.4-.3 2.3-.7 3.4-1.7 1.6-1.3 2.5-2.6 2.9-4.3l-.2-.3c-.9.9-1.8 1.3-3.1 1.3-2.5 0-3.9-1.5-4.9-4-3.7 2.6-5.9 4-9.9 6.3-3.2 1.8-6.1 3.2-9.8 4.9l.6 1.3 5-2.2v23.1c0 1.4-.2 2.3-.8 3.6-.2.5-.5.8-.8 1.2 2.1-.3 4.2-.9 6-2.7 2-2 2.9-3.9 2.9-6.8V18.8L71 18c.6 1.2 1.2 1.9 2.4 2.6.9.6 2.3.7 3.6.7v32.3c-2.3.7-3.9.8-6.4.8-10.9 0-19.3-4.8-19.3-19.6 0-9.1 3.9-16.5 10.5-21.2l-.3-.4c-9.1 3.5-17.9 13.7-17.9 25.9 0 12 8.3 21.8 22.2 21.8 9.9 0 18.3-6 21.2-13.2zm359.3-6.4l-7.9 4.8V32.6l2-.4 5.9 9.1zm6.9-2.5c-1.7-1.7-2.5-2.7-4-4.7-1.6-2.2-2.5-4-3.6-6.5-1.7 1.5-3.3 2.6-4.8 3.1-3 1.1-9.2 1.5-10.8 1.5v.4c.5.4.9.9 1.2 1.4.7 1.1.9 1.8.9 3v15.3c-.9.4-1.4.8-2 1.5-.7.8-1.2 1.4-1.2 2.5v1.1c1.2-.7 1.9-.9 3.3-.9 2 0 4.3 1 6.6 3.7l8.2-6.3-1-.9-2 1.4c-1-.8-1.6-1.2-2.7-1.7-.9-.4-1.7-.7-2.7-.9V48l14.6-9.2zm-26.4 15.4l-.9-1.2-2 1.2c-.7-.4-1.2-.8-2-1.2-.8-.4-1.2-.5-2-.8V31.9h2.6c.8 0 1.2.1 1.9.4.4.1.6.3.9.4l.4-.2c-.3-.8-.4-1.2-.4-2 0-1.1.1-1.7.5-2.7l-.4-.3c-.4.3-.7.5-1.2.7-.7.2-1.2.3-2 .3H420v-4.3c0-1.1.1-2.2.6-3.6.3-.9.4-1.3.8-2.1h-.4c-1.4 1.4-2.3 2.1-4 2.9-1.7.8-3.1 1.1-4.4 1.3l-.6.7c.4.3.7.4 1 .9.4.5.6 1 .6 1.7v2.7H411c-.7 0-1.1-.2-1.7-.4-.4-.1-.7-.2-1.1-.4.2.9.3 1.5.2 2.5-.1 1-.1 1.7-.5 2.5l.3.1c.4-.2.5-.4.9-.5.6-.3 1.2-.4 1.7-.4h2.9v20.2c-1.5.4-2.4 1-3.5 2.1-.9.9-1.4 1.7-1.9 3 1.3-.4 2-.7 3.3-.7 2.4 0 5.8 2 7.7 3.7 1.1-1.2 1.9-1.8 3.2-2.9 1.6-1.5 3.1-2.5 4.3-3.3zm-20.3 0l-.9-1.2-2 1.2c-.7-.4-1.2-.8-2-1.2-.8-.4-1.2-.5-2-.8V31.9h2.6c.8 0 1.2.1 1.9.4.4.1.6.3.9.4l.4-.2c-.3-.8-.4-1.2-.4-2 0-1.1.1-1.7.5-2.7l-.4-.3c-.4.3-.7.5-1.2.7-.7.2-1.2.3-2 .3h-2.2v-4.3c0-1.1.1-2.2.6-3.6.3-.9.4-1.3.8-2.1h-.4c-1.4 1.4-2.3 2.1-4 2.9-1.7.8-3.1 1.1-4.4 1.3l-.6.7c.4.3.7.4 1 .9.4.5.6 1 .6 1.7v2.7h-2.6c-.7 0-1.1-.2-1.7-.4-.4-.1-.7-.2-1.1-.4.2.9.3 1.5.2 2.5-.1 1-.1 1.7-.5 2.5l.3.1c.4-.2.5-.4.9-.5.6-.3 1.2-.4 1.7-.4h2.9v20.2c-1.5.4-2.4 1-3.5 2.1-.9.9-1.4 1.7-1.9 3 1.3-.4 2-.7 3.3-.7 2.4 0 5.8 2 7.7 3.7 1.1-1.2 1.9-1.8 3.2-2.9 1.6-1.5 3.1-2.5 4.3-3.3zm-27.9-12.9l-7.9 4.8V32.6l2-.4 5.9 9.1zm6.9-2.5c-1.7-1.7-2.5-2.7-4-4.7-1.6-2.2-2.5-4-3.6-6.5-1.7 1.5-3.3 2.6-4.8 3.1-3 1.1-9.2 1.5-10.8 1.5v.4c.5.4.9.9 1.2 1.4.7 1.1.9 1.8.9 3v15.3c-.9.4-1.4.8-2 1.5-.7.8-1.2 1.4-1.2 2.5v1.1c1.2-.7 1.9-.9 3.3-.9 2 0 4.3 1 6.6 3.7l8.2-6.3-.9-.9-2 1.4c-1-.8-1.6-1.2-2.7-1.7-.9-.4-1.7-.7-2.7-.9V48l14.5-9.2zM358.7 53l-.9-.7-1.9 1.7c-2.7-1.4-4.6-2.1-7.7-2.1-3.5 0-6.6.6-11.8 3.5l7.8-9.8h7.4L354 42c-.4.1-.7.1-1.2.2-.6.1-1.4.1-1.9.1h-4l10.8-13.7-.9-.9c-2.1 3.3-7.4 3.7-10.1 3.7-2.8 0-5.6-.4-6.2-4-1.8 1.9-3 2.8-5.1 4.3-1.1.7-1.9 1.2-2.9 1.7 2.9 2 5.2 3 8.7 3 2.5 0 7.2-1.2 11.6-3.9l-7.8 9.8h-8l-2.2 3.7c.4-.1.6-.1 1-.1.4-.1.6-.1.9-.1h5.5l-10.8 13.6 1.3.9 1.6-2c2.3-.7 3.8-.9 6.1-.9 4.8 0 8.7 1.2 12 3l6.3-7.4zm-39.7-.1l-1.9 1.6c-5.7-.6-8.2-3-8.2-7.4 0-2.3 1-4.3 2.2-5.6l4.3 4.9.9-.9-10-11.3c1.4.4 2.3.9 3.8.9 2.4 0 3.6-.2 5.9-1.3l3.1 2.5v16.6zm11.2 1.2l-.4-.4c-.5.1-.9.1-1.4.1-1.9 0-3.2-2.2-3.2-3.8V34.8c.8-.4 1.2-.7 1.7-1.3.5-.6.9-1.2 1.1-1.7l-.4-.4c-.7.4-1.2.5-2 .5-1.6 0-2.9-1.8-3.9-3.8-3.1 3.7-5.6 5-7 5-.9 0-2.9-1-4.6-5.1-1.1 1.4-1.9 2-3.4 3-.9.5-2.1 1.1-3.3 1.4v1l6.5 7.3c-4.3 2-7.2 5.2-7.2 10 0 5.3 5.1 8 9.8 9.8l6.6-6.2c.3 1.7.7 2.6 1.8 3.8 1.2 1.4 2.4 1.9 3.8 2.4.9-1.2 1.4-1.9 2.5-3.1 1.2-1.5 1.9-2.1 3-3.3zm-39.7-2.4c-.5 1.7-1 2.6-2.3 3.8-1.3 1.2-2.7 1.9-4 2.2v-6c1.1-.6 1.8-.8 3-.8 1.3 0 2.2.3 3.3.8zm.9-8.3c0 3.1.1 4.2-.1 5.3-.1.6-.3.9-.4 1.4-1.2-.6-2-.8-3.4-.8s-2.5.3-3.4.7v-6.4c1.4.4 2.3.6 3.8.6 1.1-.1 2.5-.4 3.5-.8zm-.4-2c-1.2.8-2.2 1-3.5 1-1.4 0-2.2-.3-3.3-.7v-6.9c1.9.2 3 .8 4.4 2.1 1.4 1.3 2 2.5 2.4 4.5zm1.5-22.3l-12.4 17.5V20.5l2.8-1.7c1.2 1.2 3 2.2 4.4 2.2 1.5 0 3.2-.7 5.2-1.9zm7.2 25.7c0-6.9-6.4-11.7-13.4-11.7h-2l12.8-18.3-.9-.7c-.9.8-2.5 1.7-3.4 1.7-2 0-3.3-1.7-4-3.3-2.7 2.5-4.8 4-8.1 6-4 2.5-7.1 4-10.8 5.9v1.5l3-1.4v24.4c0 1.3-.5 2.1-.9 3.3-.2.6-.5.9-.8 1.5 2.2-.1 3.6-.7 5.3-2.1 2.1-1.7 3.4-3.4 3.4-6.1v-6l2.8-3.8v22.4c-1.2.3-2 .4-3.2.4-9.7 0-15.7-8.5-15.7-20.8 0-10.3 4.7-19.3 11.9-23.4l-.4-.5c-9.4 3.6-19.7 12.9-19.7 25.5 0 12.9 11.3 21 23.7 21 8.1 0 20.4-5.2 20.4-15.5z"/></svg>